<?xml version="1.0" encoding="UTF-8"?>
<svg id="Camada_1" data-name="Camada 1" xmlns="http://www.w3.org/2000/svg" viewBox="0 0 211.43 20" width="211" height="20">
  <path d="M22.54,16.39c-.48,2.05-2.54,3.51-4.61,3.51l-13.23-.02c-3.13,0-5.14-2.83-4.61-5.79l4.3.05c.08.8.41,1.77,1.45,1.77l10.69.03c1.31,0,1.98-.86,1.96-2.15-.02-1.01-.57-1.89-1.72-1.9l-12.07-.11C1.66,11.3-.37,8.96.15,5.96-.36,2.79,1.72.44,4.9.05l13,.07c3.03.02,5.07,2.63,4.62,5.56l-4.34.02c0-.94-.52-1.61-1.39-1.61H6.07c-1.08,0-1.6.88-1.55,1.87.03.55.06.99.31,1.33.33.45.84.64,1.48.64l11.33.09c1.98.02,4.03,1.17,4.73,3.04.61,1.62.6,3.5.17,5.33Z" fill="#02081a"/>
  <path d="M174.1,19.88l-13.44.02c-3.11,0-5.31-2.62-5.3-5.54V5.66c0-2.92,2.21-5.55,5.3-5.55l13.39-.02c3.06,0,5.32,2.65,5.31,5.56v8.73c0,2.82-2.13,5.51-5.25,5.51ZM172.88,15.87c1.22-.19,1.92-.97,2.09-2.08l-.04-7.57c0-1.2-.9-2.07-2.14-2.07h-10.68c-1.41,0-2.34.95-2.34,2.34l.03,7.28c0,1.16.89,2.07,2.07,2.07l11.01.03Z" fill="#02081a"/>
  <path d="M49.83,19.9h-13.47c-3.08,0-5.28-2.66-5.27-5.57l.03-8.84c0-2.97,2.25-5.05,5.19-5.46h13.7c2.98.39,5.15,2.62,5.14,5.64l-.03,9.21c-.01,2.69-2.42,5.01-5.28,5.01ZM48.85,15.81c1.17,0,1.94-1.05,1.93-2.04l-.02-7.31c0-1.35-.85-2.33-2.25-2.33h-10.72c-1.56,0-2.33,1.17-2.3,2.61l.14,7.66c.02.87,1.05,1.45,1.91,1.45l11.32-.03Z" fill="#02081a"/>
  <polygon points="88.12 19.97 82.74 19.96 68.01 5.3 67.9 19.96 63.5 19.99 63.47 .04 68.85 .04 83.63 14.77 83.66 0 88.11 .02 88.12 19.97" fill="#02081a"/>
  <polygon points="211.43 19.95 205.35 19.94 198.53 12.91 191.62 19.98 185.78 19.93 195.41 9.84 185.86 .06 191.91 0 198.52 6.86 205.17 .02 211.2 .05 201.66 9.86 211.43 19.95" fill="#02081a"/>
  <polygon points="144.01 .05 149.25 .07 138.44 19.99 132.88 19.96 122.4 .07 127.57 .04 135.78 15.55 144.01 .05" fill="#02081a"/>
  <polygon points="117.05 20 108.55 4.4 99.93 19.96 94.85 19.94 105.94 .01 111.19 0 122.2 19.91 117.05 20" fill="#7c87ff"/>
</svg>