<?xml version="1.0" encoding="UTF-8"?>
<svg id="Camada_1" data-name="Camada 1" xmlns="http://www.w3.org/2000/svg" viewBox="0 0 48 48">
  <defs>
    <style>
      .cls-1 {
        fill: #7c87ff;
      }
    </style>
  </defs>
  <path class="cls-1" d="M31.91,21.47c0-.53.35-.72.77-.68.35.03.6.31.6.74l.03,10.77c0,3.03-1.04,5.86-3.33,7.72s-5.44,2.57-8.42,1.68c-3.67-1.1-6.44-4.5-6.6-8.4l-.06-11.99c0-.37.5-.59.74-.54.38.07.63.3.63.76l.1,11.95c.27,4.27,4.06,7.48,8.25,7.25,3.84-.21,7.03-3.14,7.22-7.02l.08-12.24Z"/>
  <path class="cls-1" d="M17.51,29.25c-.24-2.96,1.52-5.59,4.15-6.69l.04-8.01c0-.37-.16-.65-.25-.94-.11-2.18,0-4.31.05-6.5,0-.3.13-.46.34-.56.17-.08.65-.02.65.31v29.68c0,.22-.24.34-.36.36-.17.03-.44-.08-.44-.31l-.02-1.75c-2.24-.97-3.96-3.02-4.17-5.59ZM21.68,33.39v-9.37c-1.8.96-2.88,2.78-2.87,4.75.01,1.9,1.14,3.76,2.87,4.62Z"/>
  <path class="cls-1" d="M26.71,22.59c2.44.97,3.98,3.33,4.15,5.9.05,2.77-1.6,5.26-4.15,6.31l-.05,1.67c0,.25-.17.43-.37.44-.26,0-.45-.13-.45-.46V7.06c0-.36.21-.52.46-.54s.54.16.54.48l.05,6.6-.18.51v8.49ZM26.67,33.4c1.76-.97,2.85-2.74,2.85-4.64s-1.05-3.8-2.84-4.71v9.35Z"/>
  <path class="cls-1" d="M13.19,39.38c0,.49-.36.66-.63.68-.34.03-.76-.16-.76-.61l-.02-22.73c0-.45.2-.75.57-.82.3-.06.83.13.83.59v22.88Z"/>
  <path class="cls-1" d="M36.29,39.38c0,.53-.45.7-.74.69-.38-.02-.67-.28-.67-.73v-22.61c0-.45.2-.73.57-.81.29-.06.83.12.84.58v22.88Z"/>
  <rect class="cls-1" x="23.75" y="5.91" width=".88" height="31.07"/>
  <path class="cls-1" d="M42.22,34.26c0,.52-.34.81-.72.81s-.7-.32-.7-.76l.02-12.96c0-.37.43-.53.68-.54.23,0,.7.15.7.52l.02,12.93Z"/>
  <path class="cls-1" d="M7.27,34.37c0,.44-.4.67-.67.7s-.73-.25-.73-.64v-13.01c0-.42.46-.64.74-.61.36.03.67.29.67.72v12.84Z"/>
  <path class="cls-1" d="M39.25,33c0,.52-.15.79-.57.92-.28.08-.84-.13-.84-.56v-10.71c0-.44.29-.74.67-.74.4,0,.73.29.73.75v10.34Z"/>
  <path class="cls-1" d="M10.24,33.11c0,.48-.22.73-.57.82-.26.06-.81-.12-.81-.53v-10.95c0-.36.41-.52.65-.54.26-.02.72.15.72.53l.02,10.66Z"/>
  <path class="cls-1" d="M45.1,30.61c0,.43-.44.59-.73.57s-.64-.27-.64-.63v-5.25c.01-.37.35-.61.64-.64.32-.03.75.23.75.64l-.02,5.31Z"/>
  <path class="cls-1" d="M4.32,30.38c0,.47-.3.79-.67.8s-.74-.3-.74-.74v-5.04c0-.42.29-.72.65-.75.43-.03.77.28.77.75v4.98Z"/>
  <path class="cls-1" d="M1.36,28.99c0,.44-.39.62-.69.62S0,29.41,0,29.02v-2.3c.01-.37.4-.53.67-.52s.67.14.67.52v2.28Z"/>
  <path class="cls-1" d="M48,28.97c0,.45-.46.68-.77.64-.39-.05-.61-.36-.61-.79v-2.03c0-.36.33-.57.6-.6.32-.03.77.12.77.51v2.26Z"/>
  <path class="cls-1" d="M20.29,12.8c-.23.25-.81.24-1.07.04-.37-.29-.39-1.01-.05-1.35.24-.24.83-.24,1.08-.02.35.29.37.96.03,1.33Z"/>
  <path class="cls-1" d="M29.2,12.76c-.27.3-.86.27-1.12.04-.35-.32-.35-1,.01-1.31.25-.22.82-.23,1.07,0,.3.28.33.93.03,1.27Z"/>
  <path class="cls-1" d="M29.25,9.63c-.27.36-.95.33-1.22.03-.3-.34-.24-1.02.14-1.28.24-.16.76-.15.99.03.3.25.36.87.09,1.21Z"/>
  <path class="cls-1" d="M20.3,9.69c-.28.26-.87.25-1.12,0-.31-.31-.32-.99.01-1.28.26-.22.8-.21,1.07-.02.36.25.39.96.04,1.29Z"/>
</svg>